<?xml version="1.0" encoding="UTF-8" standalone="no"?>
<svg
   xmlns:dc="http://purl.org/dc/elements/1.1/"
   xmlns:cc="http://creativecommons.org/ns#"
   xmlns:rdf="http://www.w3.org/1999/02/22-rdf-syntax-ns#"
   xmlns:svg="http://www.w3.org/2000/svg"
   xmlns="http://www.w3.org/2000/svg"
   xmlns:sodipodi="http://sodipodi.sourceforge.net/DTD/sodipodi-0.dtd"
   xmlns:inkscape="http://www.inkscape.org/namespaces/inkscape"
   height="100px"
   width="100px"
   fill="#000000"
   version="1.1"
   x="0px"
   y="0px"
   viewBox="0 0 100 100"
   enable-background="new 0 0 100 100"
   xml:space="preserve"
   id="svg20"
   sodipodi:docname="collectif.svg"
   inkscape:version="0.92.4 (5da689c313, 2019-01-14)"><metadata
     id="metadata26"><rdf:RDF><cc:Work
         rdf:about=""><dc:format>image/svg+xml</dc:format><dc:type
           rdf:resource="http://purl.org/dc/dcmitype/StillImage" /><dc:title></dc:title></cc:Work></rdf:RDF></metadata><defs
     id="defs24" /><sodipodi:namedview
     pagecolor="#ffffff"
     bordercolor="#666666"
     borderopacity="1"
     objecttolerance="10"
     gridtolerance="10"
     guidetolerance="10"
     inkscape:pageopacity="0"
     inkscape:pageshadow="2"
     inkscape:window-width="1600"
     inkscape:window-height="836"
     id="namedview22"
     showgrid="false"
     inkscape:snap-global="false"
     inkscape:zoom="4.72"
     inkscape:cx="-2.9788375"
     inkscape:cy="57.526955"
     inkscape:window-x="0"
     inkscape:window-y="27"
     inkscape:window-maximized="1"
     inkscape:current-layer="svg20" /><path
     style="fill:#ffffff"
     inkscape:connector-curvature="0"
     id="path4"
     d="m 80.266,33.951 c 2.171,0 3.93,-3.265 3.93,-5.435 0,-2.17 -1.759,-3.93 -3.93,-3.93 -2.171,0 -3.931,1.76 -3.931,3.93 0,2.171 1.76,5.435 3.931,5.435 z" /><path
     style="fill:#ffffff"
     inkscape:connector-curvature="0"
     id="path6"
     d="m 53.932,11.116 c 0,-2.17 -1.759,-3.93 -3.93,-3.93 -2.17,0 -3.93,1.759 -3.93,3.93 0,2.171 1.76,5.435 3.93,5.435 2.171,0 3.93,-3.264 3.93,-5.435 z" /><path
     style="fill:#ffffff"
     inkscape:connector-curvature="0"
     id="path8"
     d="m 19.737,24.586 c -2.17,0 -3.93,1.76 -3.93,3.93 0,2.17 1.76,5.435 3.93,5.435 2.171,0 3.93,-3.265 3.93,-5.435 0,-2.17 -1.759,-3.93 -3.93,-3.93 z" /><path
     style="fill:#ffffff"
     inkscape:connector-curvature="0"
     id="path10"
     d="m 19.737,59.533 c -2.17,0 -3.93,1.76 -3.93,3.93 0,2.17 1.76,5.435 3.93,5.435 2.171,0 3.93,-3.265 3.93,-5.435 0,-2.17 -1.759,-3.93 -3.93,-3.93 z" /><path
     style="fill:#ffffff"
     inkscape:connector-curvature="0"
     id="path12"
     d="m 45.994,80.839 c 0,2.171 1.76,5.435 3.93,5.435 2.171,0 3.93,-3.264 3.93,-5.435 0,-2.17 -1.759,-3.93 -3.93,-3.93 -2.17,0 -3.93,1.76 -3.93,3.93 z" /><path
     style="fill:#ffffff"
     inkscape:connector-curvature="0"
     id="path14"
     d="m 80.264,57.347 c -3.244,0 -6.135,1.533 -7.992,3.911 L 61.815,55.512 c 0.001,-0.002 0.002,-0.004 0.004,-0.006 0.093,-0.201 0.181,-0.403 0.264,-0.608 0.009,-0.021 0.017,-0.04 0.024,-0.061 0.074,-0.188 0.146,-0.377 0.212,-0.567 0.012,-0.035 0.024,-0.071 0.036,-0.106 0.06,-0.177 0.115,-0.354 0.167,-0.534 0.014,-0.048 0.027,-0.096 0.041,-0.144 0.046,-0.168 0.089,-0.338 0.129,-0.508 0.014,-0.059 0.028,-0.118 0.041,-0.177 0.035,-0.161 0.066,-0.323 0.096,-0.486 0.012,-0.068 0.025,-0.136 0.036,-0.204 0.026,-0.157 0.047,-0.316 0.067,-0.477 0.009,-0.072 0.02,-0.145 0.027,-0.218 0.018,-0.165 0.03,-0.331 0.042,-0.498 0.005,-0.067 0.012,-0.134 0.016,-0.202 0.012,-0.232 0.02,-0.466 0.02,-0.702 0,-0.001 0,-0.002 0,-0.003 v 0 c 0,-1.965 -0.439,-3.828 -1.222,-5.5 l 10.457,-5.746 c 1.857,2.378 4.748,3.912 7.992,3.912 5.591,0 10.139,-4.548 10.139,-10.139 0,-5.591 -4.549,-10.138 -10.139,-10.138 -5.59,0 -10.139,4.548 -10.139,10.139 0,1.723 0.434,3.345 1.194,4.768 L 60.975,42.99 C 58.803,39.606 55.112,37.289 50.87,37.008 V 25.237 C 56.055,24.795 60.14,20.435 60.14,15.138 60.14,9.548 55.591,5 50,5 44.41,5 39.862,9.548 39.862,15.138 c 0,5.297 4.084,9.657 9.27,10.099 v 11.771 c -4.241,0.281 -7.933,2.598 -10.105,5.982 L 28.681,37.305 c 0.761,-1.422 1.194,-3.044 1.194,-4.767 0,-5.59 -4.548,-10.139 -10.139,-10.139 -5.591,0 -10.139,4.549 -10.139,10.14 0,5.591 4.548,10.139 10.139,10.139 3.245,0 6.136,-1.534 7.993,-3.912 l 10.458,5.746 c -0.782,1.672 -1.221,3.536 -1.221,5.5 v 0 c 0,10e-4 0,0.002 0,0.003 0,0.235 0.007,0.47 0.02,0.702 0.003,0.068 0.011,0.135 0.015,0.202 0.012,0.167 0.024,0.333 0.042,0.498 0.008,0.073 0.019,0.146 0.028,0.218 0.02,0.16 0.041,0.319 0.067,0.477 0.011,0.068 0.024,0.136 0.036,0.205 0.029,0.162 0.061,0.323 0.096,0.484 0.013,0.06 0.027,0.12 0.042,0.18 0.04,0.169 0.082,0.337 0.128,0.503 0.014,0.05 0.028,0.1 0.042,0.149 0.051,0.178 0.106,0.353 0.165,0.527 0.013,0.037 0.025,0.075 0.039,0.113 0.065,0.188 0.134,0.372 0.207,0.556 0.01,0.024 0.02,0.049 0.03,0.074 0.08,0.198 0.166,0.394 0.255,0.587 0.003,0.008 0.006,0.015 0.01,0.022 L 27.73,61.258 c -1.857,-2.378 -4.748,-3.911 -7.993,-3.911 -5.591,0 -10.139,4.548 -10.139,10.139 0,5.59 4.548,10.139 10.139,10.139 5.591,0 10.139,-4.549 10.139,-10.139 0,-1.723 -0.433,-3.346 -1.194,-4.768 l 10.346,-5.685 c 0.002,0.004 0.005,0.008 0.008,0.012 0.674,1.047 1.493,1.991 2.429,2.805 0.01,0.01 0.021,0.018 0.03,0.026 0.185,0.159 0.373,0.314 0.566,0.463 0,0 0,0 0,0 0.595,0.458 1.229,0.866 1.898,1.218 0.003,0.002 0.007,0.004 0.011,0.005 0.213,0.112 0.43,0.218 0.65,0.317 0.016,0.008 0.032,0.016 0.048,0.022 0.221,0.1 0.444,0.193 0.671,0.28 0.004,0.002 0.007,0.003 0.011,0.004 0.711,0.273 1.452,0.484 2.215,0.63 0.004,0.001 0.008,0.001 0.012,0.002 0.244,0.047 0.49,0.085 0.739,0.117 0.019,0.002 0.037,0.005 0.055,0.007 0.248,0.031 0.498,0.056 0.75,0.072 0.003,0.001 0.007,0.001 0.011,0.001 v 11.742 c -5.222,0.405 -9.347,4.781 -9.347,10.104 0,5.59 4.548,10.139 10.139,10.139 5.591,0 10.139,-4.549 10.139,-10.139 0,-5.271 -4.044,-9.614 -9.192,-10.093 V 63.015 c 0.003,0 0.007,0 0.011,-10e-4 0.252,-0.017 0.503,-0.041 0.751,-0.072 0.018,-0.002 0.035,-0.005 0.053,-0.007 0.25,-0.032 0.498,-0.071 0.744,-0.118 0.002,0 0.004,0 0.006,-10e-4 1.015,-0.192 1.988,-0.503 2.905,-0.917 0.012,-0.005 0.023,-0.011 0.035,-0.016 1.145,-0.52 2.199,-1.2 3.139,-2.012 0.006,-0.005 0.012,-0.011 0.018,-0.016 0.94,-0.816 1.763,-1.764 2.438,-2.815 0.002,-0.003 0.004,-0.005 0.005,-0.007 l 10.345,5.684 c -0.761,1.423 -1.194,3.046 -1.194,4.769 0,5.59 4.549,10.139 10.139,10.139 5.591,0 10.139,-4.549 10.139,-10.139 C 90.402,61.895 85.854,57.347 80.264,57.347 Z M 71.318,32.539 c 0,-4.941 4.005,-8.946 8.945,-8.946 4.941,0 8.946,4.005 8.946,8.946 0,2.026 -0.675,3.895 -1.811,5.395 -0.048,-2.414 -1.905,-4.382 -4.274,-4.599 -0.02,0.859 -2.86,2.981 -2.86,2.981 0,0 -2.842,-2.122 -2.861,-2.981 -2.369,0.216 -4.227,2.185 -4.275,4.598 -1.135,-1.5 -1.81,-3.368 -1.81,-5.394 z m -44.446,5.394 c -0.048,-2.414 -1.906,-4.382 -4.274,-4.599 -0.02,0.859 -2.861,2.981 -2.861,2.981 0,0 -2.842,-2.122 -2.861,-2.981 -2.369,0.216 -4.227,2.185 -4.275,4.598 -1.135,-1.5 -1.81,-3.368 -1.81,-5.394 0,-4.941 4.005,-8.946 8.946,-8.946 4.941,0 8.946,4.005 8.946,8.946 -0.001,2.027 -0.676,3.895 -1.811,5.395 z m 1.81,29.552 c 0,2.025 -0.675,3.894 -1.811,5.394 -0.048,-2.413 -1.906,-4.382 -4.274,-4.599 -0.02,0.86 -2.861,2.981 -2.861,2.981 0,0 -2.842,-2.121 -2.861,-2.981 -2.369,0.217 -4.227,2.186 -4.275,4.599 -1.135,-1.5 -1.81,-3.368 -1.81,-5.394 0,-4.941 4.005,-8.946 8.946,-8.946 4.941,0 8.946,4.005 8.946,8.946 z M 47.14,15.934 c -2.369,0.216 -4.227,2.185 -4.275,4.599 -1.136,-1.5 -1.81,-3.368 -1.81,-5.395 0,-4.94 4.005,-8.946 8.946,-8.946 4.941,0 8.946,4.005 8.946,8.946 0,2.026 -0.675,3.895 -1.81,5.395 -0.049,-2.414 -1.906,-4.382 -4.275,-4.599 -0.019,0.86 -2.86,2.981 -2.86,2.981 0,0 -2.843,-2.121 -2.862,-2.981 z m 11.729,68.927 c 0,2.026 -0.675,3.895 -1.811,5.395 -0.048,-2.414 -1.905,-4.383 -4.274,-4.599 -0.02,0.859 -2.861,2.981 -2.861,2.981 0,0 -2.842,-2.122 -2.861,-2.981 -2.368,0.216 -4.227,2.185 -4.275,4.598 -1.135,-1.499 -1.81,-3.367 -1.81,-5.394 0,-4.941 4.005,-8.946 8.946,-8.946 4.941,0 8.946,4.005 8.946,8.946 z m 0.307,-27.914 c -0.063,-3.103 -2.451,-5.635 -5.497,-5.913 -0.024,1.106 -3.678,3.834 -3.678,3.834 0,0 -3.654,-2.728 -3.679,-3.834 -3.045,0.278 -5.435,2.811 -5.497,5.913 -1.459,-1.929 -2.327,-4.331 -2.327,-6.936 0,-6.353 5.15,-11.502 11.502,-11.502 6.353,0 11.502,5.149 11.502,11.502 10e-4,2.605 -0.867,5.008 -2.326,6.936 z m 28.223,15.932 c -0.048,-2.413 -1.905,-4.382 -4.274,-4.599 -0.02,0.86 -2.86,2.981 -2.86,2.981 0,0 -2.842,-2.121 -2.861,-2.981 -2.369,0.217 -4.227,2.186 -4.275,4.599 -1.135,-1.5 -1.81,-3.368 -1.81,-5.394 0,-4.941 4.005,-8.946 8.945,-8.946 4.941,0 8.946,4.005 8.946,8.946 0,2.026 -0.675,3.894 -1.811,5.394 z" /><path
     style="fill:#ffffff"
     inkscape:connector-curvature="0"
     id="path16"
     d="m 80.266,59.533 c -2.171,0 -3.931,1.76 -3.931,3.93 0,2.17 1.76,5.435 3.931,5.435 2.171,0 3.93,-3.265 3.93,-5.435 0,-2.17 -1.759,-3.93 -3.93,-3.93 z" /><circle
     style="opacity:1;fill:#1b5e20;fill-opacity:1;fill-rule:nonzero;stroke:none;stroke-width:1.01548553;stroke-linecap:round;stroke-miterlimit:4;stroke-dasharray:none;stroke-dashoffset:0;stroke-opacity:1"
     id="path841"
     cx="49.947037"
     cy="49.841103"
     r="11.599576" /><g
     style="fill:#ffffff"
     transform="matrix(0.20715308,0,0,0.20715308,39.140844,40.496472)"
     id="g6"><path
       style="fill:#ffffff"
       d="M 95.648376,29.892029 C 91.064575,45.67395 70.914856,43.277832 58.943542,48.827759 54.240356,51.008118 51.115784,54.694763 49.540711,59.034241 48.273865,56.283264 46.594849,53.861145 44.96228,52.262085 35.780212,43.268494 20.41626,47.799194 10.174927,40.132263 22.762451,47.639099 39.629395,38.024536 48.693421,52.406555 48.23169,44.885925 43.411499,38.487305 35.664429,37.555176 25.298279,36.307739 10.722046,43.040588 3.4115601,32.286316 6.7462769,47.055237 14.752136,60.098511 30.853455,61.909424 c 6.564758,0.73822 14.669922,-1.558838 14.669922,-1.558838 0,0 3.068908,2.811523 3.564392,11.417969 0.06988,-0.275696 0.156005,-0.528992 0.23236,-0.795777 0.535523,-1.872131 1.227173,-3.53009 2.054993,-5.003052 7.964722,-14.172973 28.309815,-11.54364 39.21051,-24.005004 -9.312805,13.216674 -29.548706,13.775146 -37.069946,28.17218 -2.117676,4.053528 -3.578125,10.630493 -2.929993,16.668762 0,0 0.543885,6.001404 6.124634,8.020508 -0.883545,-3.330872 -2.977173,-11.753723 -0.708252,-14.748718 0,0 10.638855,-0.406311 18.240418,-3.858948 C 92.886536,67.750244 97.41156,48.945435 95.648376,29.892029 Z"
       id="path2"
       inkscape:connector-curvature="0" /><path
       style="fill:#ffffff"
       d="m 63.166199,15.683899 c -0.935974,10.244568 -11.914612,16.980225 -11.487915,27.306457 0.0741,1.794434 0.591552,4.039185 1.511902,6.229126 0,0 8.752563,-5.14215 11.846557,-9.460205 C 72.625427,29.168579 69.14679,17.364136 62.122498,7.4201049 64.608399,17.576721 52.738831,22.656128 47.901916,29.518494 44.287109,34.646973 45.512817,40.971008 49.755493,45.296326 46.04718,32.139038 60.871338,27.243347 63.166199,15.683899 Z"
       id="path4-6"
       inkscape:connector-curvature="0" /></g></svg>