<?xml version="1.0" encoding="UTF-8" standalone="no"?>
<svg
   xmlns:dc="http://purl.org/dc/elements/1.1/"
   xmlns:cc="http://creativecommons.org/ns#"
   xmlns:rdf="http://www.w3.org/1999/02/22-rdf-syntax-ns#"
   xmlns:svg="http://www.w3.org/2000/svg"
   xmlns="http://www.w3.org/2000/svg"
   xmlns:sodipodi="http://sodipodi.sourceforge.net/DTD/sodipodi-0.dtd"
   xmlns:inkscape="http://www.inkscape.org/namespaces/inkscape"
   height="100px"
   width="100px"
   fill="#000000"
   version="1.1"
   x="0px"
   y="0px"
   viewBox="0 0 512 512"
   enable-background="new 0 0 512 512"
   xml:space="preserve"
   id="svg26"
   sodipodi:docname="evenements.svg"
   inkscape:version="0.92.4 (5da689c313, 2019-01-14)"><metadata
     id="metadata32"><rdf:RDF><cc:Work
         rdf:about=""><dc:format>image/svg+xml</dc:format><dc:type
           rdf:resource="http://purl.org/dc/dcmitype/StillImage" /><dc:title></dc:title></cc:Work></rdf:RDF></metadata><defs
     id="defs30" /><sodipodi:namedview
     pagecolor="#ffffff"
     bordercolor="#666666"
     borderopacity="1"
     objecttolerance="10"
     gridtolerance="10"
     guidetolerance="10"
     inkscape:pageopacity="0"
     inkscape:pageshadow="2"
     inkscape:window-width="919"
     inkscape:window-height="480"
     id="namedview28"
     showgrid="false"
     inkscape:zoom="2.36"
     inkscape:cx="2.7542373"
     inkscape:cy="50"
     inkscape:window-x="0"
     inkscape:window-y="27"
     inkscape:window-maximized="0"
     inkscape:current-layer="svg26" /><g
     id="g24"
     style="fill:#ffffff"><path
       d="M 471.266,74.576 C 470.9,49.037 462.101,23.733 445.592,23.733 c -16.263,0 -25.205,25.82 -25.607,50.744 H 376.687 C 376.3,48.972 367.503,23.733 351.019,23.733 c -16.445,0 -25.222,25.239 -25.607,50.744 h -43.306 c -0.386,-25.505 -9.162,-50.744 -25.607,-50.744 -16.483,0 -25.279,25.239 -25.667,50.744 h -43.299 c -0.386,-25.505 -9.162,-50.744 -25.607,-50.744 -16.445,0 -25.221,25.239 -25.607,50.744 H 92.954 C 92.568,48.972 83.792,23.733 67.347,23.733 50.881,23.733 42.104,49.034 41.739,74.571 24.553,75.79 10.94,90.154 10.94,107.647 v 348.395 c 0,18.295 14.878,33.179 33.165,33.179 h 424.73 c 18.287,0 33.165,-14.884 33.165,-33.179 V 107.648 C 501.999,90.176 488.421,75.827 471.266,74.576 Z M 445.592,35.733 c 5.318,0 13.288,15.382 13.673,38.744 h -27.281 c 0.392,-25.082 9.087,-38.744 13.608,-38.744 z m -94.573,0 c 5.316,0 13.283,15.382 13.668,38.744 h -27.275 c 0.392,-25.082 9.086,-38.744 13.607,-38.744 z m -94.521,0 c 4.521,0 13.215,13.662 13.607,38.744 h -27.274 c 0.385,-23.362 8.351,-38.744 13.667,-38.744 z m -94.573,0 c 4.52,0 13.215,13.662 13.607,38.744 h -27.215 c 0.383,-23.362 8.315,-38.744 13.608,-38.744 z m -94.579,0 c 4.52,0 13.215,13.662 13.607,38.744 H 53.739 C 54.122,51.115 62.053,35.733 67.346,35.733 Z M 44.104,86.477 h 36.375 c -1.935,19.66 -9.152,30.26 -13.133,30.26 -3.313,0 -6,2.687 -6,6 0,3.313 2.687,6 6,6 14.612,0 23.169,-19.926 25.167,-42.26 h 82.544 c -1.935,19.66 -9.152,30.26 -13.133,30.26 -3.313,0 -6,2.687 -6,6 0,3.313 2.687,6 6,6 14.612,0 23.169,-19.926 25.167,-42.26 h 82.539 c -1.935,19.66 -9.152,30.26 -13.133,30.26 -3.313,0 -6,2.687 -6,6 0,3.313 2.687,6 6,6 14.612,0 23.169,-19.926 25.167,-42.26 h 82.53 c -1.871,18.529 -8.534,30.26 -13.177,30.26 -3.313,0 -6,2.687 -6,6 0,3.313 2.687,6 6,6 14.646,0 23.224,-19.926 25.227,-42.26 h 82.528 c -1.872,18.529 -8.537,30.26 -13.182,30.26 -3.313,0 -6,2.687 -6,6 0,3.313 2.687,6 6,6 14.627,0 23.202,-19.867 25.222,-42.16 10.745,1.003 19.186,10.065 19.186,21.071 v 44.056 H 22.939 v -44.057 c 0,-11.673 9.495,-21.17 21.165,-21.17 z m 424.73,390.744 H 44.104 c -11.67,0 -21.165,-9.501 -21.165,-21.179 V 163.704 h 467.06 v 292.338 c 0,11.678 -9.494,21.179 -21.165,21.179 z"
       id="path2"
       inkscape:connector-curvature="0"
       style="fill:#ffffff" /><path
       d="m 118.868,193.22 h -48.78 c -7.226,0 -13.104,5.88 -13.104,13.107 v 46.132 c 0,7.225 5.878,13.102 13.104,13.102 h 48.78 c 7.226,0 13.104,-5.877 13.104,-13.102 v -46.132 c 0,-7.227 -5.878,-13.107 -13.104,-13.107 z m 1.104,59.239 c 0,0.587 -0.516,1.102 -1.104,1.102 h -48.78 c -0.588,0 -1.104,-0.515 -1.104,-1.102 v -46.132 c 0,-0.61 0.495,-1.107 1.104,-1.107 h 48.78 c 0.609,0 1.104,0.497 1.104,1.107 z"
       id="path4"
       inkscape:connector-curvature="0"
       style="fill:#ffffff" /><path
       d="m 226.845,193.22 h -48.722 c -7.226,0 -13.104,5.88 -13.104,13.107 v 46.132 c 0,7.225 5.878,13.102 13.104,13.102 h 48.722 c 7.226,0 13.104,-5.877 13.104,-13.102 v -46.132 c 0,-7.227 -5.878,-13.107 -13.104,-13.107 z m 1.104,59.239 c 0,0.577 -0.526,1.102 -1.104,1.102 h -48.722 c -0.588,0 -1.104,-0.515 -1.104,-1.102 v -46.132 c 0,-0.61 0.495,-1.107 1.104,-1.107 h 48.722 c 0.609,0 1.104,0.497 1.104,1.107 z"
       id="path6"
       inkscape:connector-curvature="0"
       style="fill:#ffffff" /><path
       d="m 334.88,265.561 c 7.226,0 13.104,-5.877 13.104,-13.102 v -46.132 c 0,-7.227 -5.879,-13.107 -13.104,-13.107 h -48.787 c -7.224,0 -13.103,5.879 -13.104,13.107 v 46.132 c 0,7.225 5.879,13.102 13.104,13.102 z m -49.892,-13.102 v -46.13 c 0,-0.611 0.496,-1.108 1.104,-1.108 h 48.787 c 0.578,0 1.104,0.528 1.104,1.107 v 46.132 c 0,0.545 -0.558,1.102 -1.104,1.102 h -48.787 c -0.577,-0.001 -1.104,-0.526 -1.104,-1.103 z"
       id="path8"
       inkscape:connector-curvature="0"
       style="fill:#ffffff" /><path
       d="m 442.85,193.22 h -48.721 c -7.224,0 -13.1,5.88 -13.1,13.107 v 46.132 c 0,7.225 5.876,13.102 13.1,13.102 h 48.721 c 7.226,0 13.104,-5.877 13.104,-13.102 v -46.132 c 0,-7.227 -5.879,-13.107 -13.104,-13.107 z m 1.104,59.239 c 0,0.587 -0.517,1.102 -1.104,1.102 h -48.721 c -0.575,0 -1.1,-0.525 -1.1,-1.102 v -46.132 c 0,-0.61 0.493,-1.107 1.1,-1.107 h 48.721 c 0.609,0 1.104,0.497 1.104,1.107 z"
       id="path10"
       inkscape:connector-curvature="0"
       style="fill:#ffffff" /><path
       d="m 118.868,284.293 h -48.78 c -7.226,0 -13.104,5.879 -13.104,13.105 v 46.127 c 0,7.195 5.878,13.049 13.104,13.049 h 48.78 c 7.226,0 13.104,-5.854 13.104,-13.049 v -46.127 c 0,-7.226 -5.878,-13.105 -13.104,-13.105 z m 1.104,59.232 c 0,0.568 -0.505,1.049 -1.104,1.049 h -48.78 c -0.599,0 -1.104,-0.48 -1.104,-1.049 v -46.127 c 0,-0.62 0.485,-1.105 1.104,-1.105 h 48.78 c 0.619,0 1.104,0.485 1.104,1.105 z"
       id="path12"
       inkscape:connector-curvature="0"
       style="fill:#ffffff" /><path
       d="m 226.845,284.293 h -48.722 c -7.226,0 -13.104,5.879 -13.104,13.105 v 46.127 c 0,7.195 5.878,13.049 13.104,13.049 h 48.722 c 7.226,0 13.104,-5.854 13.104,-13.049 v -46.127 c 0,-7.226 -5.878,-13.105 -13.104,-13.105 z m 1.104,59.232 c 0,0.568 -0.505,1.049 -1.104,1.049 h -48.722 c -0.599,0 -1.104,-0.48 -1.104,-1.049 v -46.127 c 0,-0.62 0.485,-1.105 1.104,-1.105 h 48.722 c 0.609,0 1.104,0.496 1.104,1.105 z"
       id="path14"
       inkscape:connector-curvature="0"
       style="fill:#ffffff" /><path
       d="m 118.868,375.364 h -48.78 c -7.226,0 -13.104,5.851 -13.104,13.042 v 46.126 c 0,7.228 5.878,13.107 13.104,13.107 h 48.78 c 7.226,0 13.104,-5.88 13.104,-13.107 v -46.126 c 0,-7.191 -5.878,-13.042 -13.104,-13.042 z m 1.104,59.168 c 0,0.621 -0.485,1.107 -1.104,1.107 h -48.78 c -0.609,0 -1.104,-0.497 -1.104,-1.107 v -46.126 c 0,-0.564 0.505,-1.042 1.104,-1.042 h 48.78 c 0.599,0 1.104,0.478 1.104,1.042 z"
       id="path16"
       inkscape:connector-curvature="0"
       style="fill:#ffffff" /><path
       d="m 226.845,375.364 h -48.722 c -7.226,0 -13.104,5.851 -13.104,13.042 v 46.126 c 0,7.228 5.878,13.107 13.104,13.107 h 48.722 c 7.226,0 13.104,-5.88 13.104,-13.107 v -46.126 c 0,-7.191 -5.878,-13.042 -13.104,-13.042 z m 1.104,59.168 c 0,0.61 -0.495,1.107 -1.104,1.107 h -48.722 c -0.609,0 -1.104,-0.497 -1.104,-1.107 v -46.126 c 0,-0.564 0.505,-1.042 1.104,-1.042 h 48.722 c 0.599,0 1.104,0.478 1.104,1.042 z"
       id="path18"
       inkscape:connector-curvature="0"
       style="fill:#ffffff" /><path
       d="m 359.549,281.611 c -45.495,0 -82.509,37.031 -82.509,82.549 0,45.516 37.014,82.546 82.509,82.546 45.499,0 82.516,-37.03 82.516,-82.546 -10e-4,-45.517 -37.017,-82.549 -82.516,-82.549 z m 0,153.095 c -38.879,0 -70.509,-31.646 -70.509,-70.546 0,-38.9 31.63,-70.549 70.509,-70.549 38.883,0 70.516,31.648 70.516,70.549 -10e-4,38.9 -31.633,70.546 -70.516,70.546 z"
       id="path20"
       inkscape:connector-curvature="0"
       style="fill:#ffffff" /><path
       d="m 388.762,332.364 -49.534,49.564 -7.993,-13.905 c -1.652,-2.872 -5.318,-3.861 -8.192,-2.212 -2.873,1.652 -3.863,5.319 -2.212,8.192 l 11.899,20.699 c 0.932,1.619 2.563,2.713 4.414,2.958 0.264,0.035 0.526,0.052 0.788,0.052 1.581,0 3.111,-0.625 4.244,-1.759 l 55.074,-55.107 c 2.342,-2.344 2.341,-6.143 -0.003,-8.485 -2.343,-2.342 -6.143,-2.341 -8.485,0.003 z"
       id="path22"
       inkscape:connector-curvature="0"
       style="fill:#ffffff" /></g></svg>