<?xml version="1.0" encoding="UTF-8" standalone="no"?>
<svg
   xmlns:dc="http://purl.org/dc/elements/1.1/"
   xmlns:cc="http://creativecommons.org/ns#"
   xmlns:rdf="http://www.w3.org/1999/02/22-rdf-syntax-ns#"
   xmlns:svg="http://www.w3.org/2000/svg"
   xmlns="http://www.w3.org/2000/svg"
   xmlns:sodipodi="http://sodipodi.sourceforge.net/DTD/sodipodi-0.dtd"
   xmlns:inkscape="http://www.inkscape.org/namespaces/inkscape"
   height="100px"
   width="100px"
   fill="#000000"
   version="1.0"
   x="0px"
   y="0px"
   viewBox="0 0 160 160"
   style="enable-background:new 0 0 160 160;"
   xml:space="preserve"
   id="svg64"
   sodipodi:docname="manifeste.svg"
   inkscape:version="0.92.4 (5da689c313, 2019-01-14)"><metadata
     id="metadata70"><rdf:RDF><cc:Work
         rdf:about=""><dc:format>image/svg+xml</dc:format><dc:type
           rdf:resource="http://purl.org/dc/dcmitype/StillImage" /><dc:title></dc:title></cc:Work></rdf:RDF></metadata><defs
     id="defs68" /><sodipodi:namedview
     pagecolor="#ffffff"
     bordercolor="#666666"
     borderopacity="1"
     objecttolerance="10"
     gridtolerance="10"
     guidetolerance="10"
     inkscape:pageopacity="0"
     inkscape:pageshadow="2"
     inkscape:window-width="1600"
     inkscape:window-height="836"
     id="namedview66"
     showgrid="false"
     inkscape:zoom="9.44"
     inkscape:cx="52.04879"
     inkscape:cy="87.419086"
     inkscape:window-x="0"
     inkscape:window-y="27"
     inkscape:window-maximized="1"
     inkscape:current-layer="svg64" /><style
     type="text/css"
     id="style2">
	.st0{fill:none;stroke:#000000;stroke-width:4;stroke-linecap:round;stroke-linejoin:round;stroke-miterlimit:10;}
	.st1{fill:none;stroke:#000000;stroke-width:4;stroke-miterlimit:10;}
</style><g
     id="g981"
     style="fill:#ffffff"><path
       d="m 80,106.5 c 8.2,0 14.9,-6.6 14.9,-14.7 0,-8.1 -6.7,-14.7 -14.9,-14.7 -8.2,0 -14.9,6.6 -14.9,14.7 0,8.1 6.7,14.7 14.9,14.7 z m 0,-25.4 c 6,0 10.9,4.8 10.9,10.7 0,5.9 -4.9,10.7 -10.9,10.7 -6,0 -10.9,-4.8 -10.9,-10.7 0,-5.9 4.9,-10.7 10.9,-10.7 z"
       id="path54"
       inkscape:connector-curvature="0"
       style="fill:#ffffff" /><path
       d="M 136.8,5 H 23.2 c -1.1,0 -2,0.9 -2,2 v 48.2 c 0,1.1 0.9,2 2,2 h 7.3 v 17.9 c -0.8,0.3 -1.6,0.7 -2.2,1.3 -1.7,1.4 -2.7,3.4 -2.7,5.6 0,1.7 0.6,3.4 1.7,4.7 l 33.4,39.4 V 153 c 0,1.1 0.9,2 2,2 h 34.4 c 1.1,0 2,-0.9 2,-2 v -26.9 l 33.4,-39.4 c 1.1,-1.3 1.7,-3 1.7,-4.7 0,-2.2 -1,-4.2 -2.7,-5.6 -0.7,-0.6 -1.4,-1 -2.2,-1.3 V 57.2 h 7.3 c 1.1,0 2,-0.9 2,-2 V 7 c 0.2,-1.1 -0.7,-2 -1.8,-2 z m -7.2,79.1 -33.9,40 c -0.3,0.4 -0.5,0.8 -0.5,1.3 V 151 H 64.8 v -25.7 c 0,-0.5 -0.2,-0.9 -0.5,-1.3 L 30.4,84 c -0.5,-0.6 -0.8,-1.3 -0.8,-2.1 0,-1 0.4,-1.9 1.2,-2.5 1.4,-1.2 3.6,-1 4.8,0.4 L 65,114.5 c 0.4,0.4 0.9,0.7 1.5,0.7 h 26.8 c 0.6,0 1.1,-0.3 1.5,-0.7 l 29.4,-34.7 c 1.2,-1.4 3.3,-1.6 4.8,-0.4 0.8,0.6 1.2,1.5 1.2,2.5 0.2,0.8 -0.1,1.6 -0.6,2.2 z m -4.1,-9.3 c -1.6,0.3 -3,1.1 -4.1,2.5 l -28.8,34 h -25 L 38.8,77.3 C 37.7,76 36.2,75.2 34.7,74.9 V 57.2 h 90.9 v 17.6 z m 9.3,-21.6 H 25.2 V 9 h 109.6 z"
       id="path56"
       inkscape:connector-curvature="0"
       style="fill:#ffffff" /><g
       id="g6"
       transform="matrix(0.34400796,0,0,0.34400796,93.652667,17.530985)"
       style="fill:#ffffff"><path
         inkscape:connector-curvature="0"
         id="path2"
         d="M 95.648376,29.892029 C 91.064575,45.67395 70.914856,43.277832 58.943542,48.827759 54.240356,51.008118 51.115784,54.694763 49.540711,59.034241 48.273865,56.283264 46.594849,53.861145 44.96228,52.262085 35.780212,43.268494 20.41626,47.799194 10.174927,40.132263 22.762451,47.639099 39.629395,38.024536 48.693421,52.406555 48.23169,44.885925 43.411499,38.487305 35.664429,37.555176 25.298279,36.307739 10.722046,43.040588 3.4115601,32.286316 6.7462769,47.055237 14.752136,60.098511 30.853455,61.909424 c 6.564758,0.73822 14.669922,-1.558838 14.669922,-1.558838 0,0 3.068908,2.811523 3.564392,11.417969 0.06988,-0.275696 0.156005,-0.528992 0.23236,-0.795777 0.535523,-1.872131 1.227173,-3.53009 2.054993,-5.003052 7.964722,-14.172973 28.309815,-11.54364 39.21051,-24.005004 -9.312805,13.216674 -29.548706,13.775146 -37.069946,28.17218 -2.117676,4.053528 -3.578125,10.630493 -2.929993,16.668762 0,0 0.543885,6.001404 6.124634,8.020508 -0.883545,-3.330872 -2.977173,-11.753723 -0.708252,-14.748718 0,0 10.638855,-0.406311 18.240418,-3.858948 C 92.886536,67.750244 97.41156,48.945435 95.648376,29.892029 Z"
         style="fill:#ffffff" /><path
         inkscape:connector-curvature="0"
         id="path4"
         d="m 63.166199,15.683899 c -0.935974,10.244568 -11.914612,16.980225 -11.487915,27.306457 0.0741,1.794434 0.591552,4.039185 1.511902,6.229126 0,0 8.752563,-5.14215 11.846557,-9.460205 C 72.625427,29.168579 69.14679,17.364136 62.122498,7.4201049 64.608399,17.576721 52.738831,22.656128 47.901916,29.518494 44.287109,34.646973 45.512817,40.971008 49.755493,45.296326 46.04718,32.139038 60.871338,27.243347 63.166199,15.683899 Z"
         style="fill:#ffffff" /></g><path
       id="path2-3"
       d="m 65.356081,12.240489 c 1.26879,0.007 2.530901,0.209938 3.806365,0.104966 0.707852,-0.02801 1.582647,-0.05597 2.050098,0.608819 0.961607,1.315609 1.202008,3.051094 1.161942,4.667616 0.0267,1.126664 0.04675,2.274326 0.373957,3.359005 -0.667783,0.05597 -1.342243,0.04899 -1.989992,0.195942 -0.31386,0.06997 -0.574296,0.286914 -0.727884,0.573827 -0.267113,0.496852 -0.447417,1.049688 -0.514195,1.616518 -0.0267,0.615817 0.08013,1.224637 0.113525,1.833458 -1.382312,-0.741782 -1.776304,-2.547243 -3.131906,-3.317015 -1.075131,-0.74178 -2.237074,-1.483561 -2.938247,-2.659212 -0.380636,-0.461865 -0.120201,-1.119665 0.0067,-1.623515 0.166945,-0.02098 0.487482,-0.06299 0.64775,-0.09097 0,-0.04196 0.0067,-0.13296 0.0067,-0.181941 -0.434059,0.049 -0.95493,-0.09797 -1.288823,0.272919 -0.347247,0.335895 -0.641072,0.734777 -1.048419,0.993702 -0.594328,0.454868 -1.382313,0.489854 -2.076807,0.370888 -0.601006,-0.174945 -1.115198,-0.594819 -1.482479,-1.112668 -0.173624,-0.237927 -0.15359,-0.615818 0.04675,-0.825755 0.307181,-0.335902 0.721207,-0.52484 1.108522,-0.741775 0.721205,-0.384889 1.542579,-0.678799 2.363953,-0.496858 0.808018,0.181948 1.662781,0.321907 2.477476,0.06997 l -0.360598,-0.335902 c 0.207013,-0.923721 0.360603,-1.882438 0.80134,-2.722188 0.140235,-0.230928 0.293825,-0.559833 0.594328,-0.559833 z m -26.716346,2.96362 c 0.399066,0.0043 0.799669,0.04634 1.180308,0.08048 2.303852,0.146955 4.567638,0.685795 6.84478,1.063681 1.215365,0.216941 2.444087,0.244929 3.666131,0.363896 2.6511,0.363891 5.3022,-0.209936 7.9533,-0.272919 -0.126877,0.363891 -0.420703,0.692794 -0.440736,1.084673 0.46077,1.21764 1.789659,2.064387 3.031736,1.763479 0.92822,-0.09797 1.656104,-0.762773 2.257109,-1.462563 -0.02671,0.510844 -0.126879,1.084679 0.160267,1.53954 0.727885,1.119665 1.776305,1.959422 2.87147,2.659212 1.222044,0.713786 1.756271,2.162357 2.73791,3.156064 -0.534226,1.091671 -1.128553,2.141364 -1.676135,3.21904 -1.07513,2.064387 -2.023385,4.198754 -2.86479,6.37511 -0.08013,0.20294 -0.153591,0.412877 -0.173625,0.636809 -0.07345,0.958716 -0.07345,1.924429 -0.21369,2.876148 -0.166945,1.224638 -0.467449,2.442272 -0.420703,3.687902 -0.02671,1.658506 0.420703,3.268032 0.841407,4.849563 0.393991,1.427572 1.10852,2.715191 1.863116,3.96082 -1.148588,0.335901 -2.383988,0.307911 -3.505864,-0.132961 0,-0.76977 0.02003,-1.539541 -0.01336,-2.30931 -0.02671,-0.202941 0.02003,-0.503856 -0.173624,-0.636811 -0.186979,-0.132961 -0.407348,-0.195942 -0.621039,-0.28692 0.100168,-0.650803 0.213691,-1.30861 0.173625,-1.973409 -0.113524,-1.749485 -0.267114,-3.498962 -0.654428,-5.206456 -0.240402,-0.923723 -0.01336,-1.875441 0.04007,-2.813165 -1.335566,0.307912 -2.737912,0.04899 -3.9466,-0.580825 -0.480805,0.76977 -0.941575,1.553535 -1.409024,2.337306 -0.988319,1.623514 -2.010029,3.317013 -2.330564,5.24844 -0.08013,0.461864 -0.04675,0.923722 -0.04675,1.392584 0.02003,1.091677 0.06677,2.232341 0.55426,3.226044 0.207013,0.391885 0.247081,0.846747 0.420704,1.252627 0.400669,0.545838 0.854762,1.049687 1.175299,1.658507 -1.188655,0.517848 -2.517544,0.24493 -3.692843,-0.153953 -0.260436,-0.209938 -0.353926,-0.573828 -0.500838,-0.874742 -0.380637,-0.734778 0.06009,-1.553536 0.06677,-2.323306 -0.28047,-0.06299 -0.567616,-0.13296 -0.841408,-0.223938 -0.273791,-0.300908 -0.05343,-0.748773 -0.01336,-1.09167 0.694497,-2.722195 1.45577,-5.423392 1.996674,-8.18757 0.180302,-0.783771 0.360603,-1.560538 0.427382,-2.365302 -1.97664,-0.04196 -3.993345,-0.216934 -5.849782,-0.972709 -2.591,-1.063682 -4.721231,-3.002106 -6.878172,-4.779579 -0.360604,0.188946 -0.547581,0.594825 -0.808016,0.888736 -1.14191,1.371594 -1.562616,3.212043 -1.649426,4.989517 -0.24708,3.058094 0.220367,6.130179 1.128554,9.034315 0.247078,0.601823 0.68114,1.084679 1.101841,1.553541 -0.146911,0.07697 -0.287145,0.146956 -0.427381,0.216935 0.567618,0.426872 1.095167,0.944721 1.382314,1.623521 -1.081809,0.545838 -2.370634,0.503848 -3.445763,-0.04899 0.347245,-0.755776 0.06011,-1.602523 -0.166945,-2.351302 -0.193658,-0.440872 -0.567619,-0.762772 -0.80802,-1.168652 -0.03339,-0.43387 0.120202,-0.853751 0.18698,-1.280623 0.207013,-1.035692 -0.06011,-2.085378 -0.200334,-3.114073 -0.233724,-1.133661 -0.393993,-2.323311 -0.961611,-3.34501 -0.227046,-0.468856 -0.507514,-0.944715 -0.574292,-1.483556 0.0067,-0.825754 0.641071,-1.511551 0.554261,-2.358297 C 35.82,31.421792 34.851713,28.846559 34.5846,26.15236 c -0.07345,-1.798465 0.02002,-3.59693 0.247081,-5.381401 0.140234,-1.161656 0.340568,-2.330309 0.747918,-3.421986 0.260436,-0.629812 0.601005,-1.273626 1.188655,-1.623521 0.546747,-0.428618 1.206354,-0.528382 1.871462,-0.521342 z m 35.579503,0.321906 c 0.125498,-0.0012 0.251256,0.0096 0.378967,0.0385 0.71453,0.09097 1.315533,0.545838 1.889827,0.958715 0.520871,0.398884 1.008354,0.951719 1.08181,1.65151 -1.348924,0.720784 -2.938248,0.923724 -4.400695,0.482856 -0.166945,-0.02801 -0.36728,-0.111968 -0.434059,-0.29391 -0.126878,-0.797766 -0.100166,-1.609526 -0.100166,-2.414283 0.515445,-0.164893 1.040491,-0.417 1.584316,-0.423373 z m -38.906736,1.50105 c -0.106845,0.825755 -0.427382,1.588528 -0.727884,2.351301 -0.794662,2.372298 -0.988319,4.940535 -0.841406,7.431793 0.133557,1.595526 0.360604,3.184054 0.534227,4.772588 0.126879,0.986705 0.694494,1.896434 0.527549,2.918132 -0.0267,0.755775 -0.367281,1.448568 -0.901507,1.938423 -0.494159,-0.335901 -1.081809,-0.783765 -1.075132,-1.462565 -0.06011,-1.196648 1.095164,-2.036397 0.901507,-3.240038 -0.153589,-1.273625 -0.420702,-2.540246 -0.427382,-3.827865 0.0067,-2.274325 -0.113522,-4.569641 0.307182,-6.815977 0.260436,-1.455567 0.674461,-2.988109 1.702846,-4.065792 z m 37.138781,4.240744 c 0.292676,0.0012 0.599334,0.02622 0.804677,0.251921 0.707852,0.832759 0.761272,2.0294 0.661106,3.086085 -0.754595,0.349895 -1.402344,1.028694 -2.283819,0.993708 -0.487481,-0.05597 -1.14191,0.05597 -1.509191,-0.370894 -0.313859,-0.552836 -0.407349,-1.238632 -0.307181,-1.868444 0.08013,-0.47586 0.113524,-1.007696 0.414026,-1.399582 0.487483,-0.566831 1.26211,-0.63681 1.936572,-0.692794 0.09015,0.0019 0.186248,-4.32e-4 0.28381,0 z M 40.594671,31.323823 c 1.676135,1.483555 3.412373,2.883144 5.302199,4.044794 -0.58097,0.615818 -1.295499,1.05669 -1.963281,1.560539 -0.0267,0.286913 -0.06011,0.580831 -0.100168,0.867745 -0.15359,-0.356894 -0.293825,-0.72079 -0.420704,-1.084679 -0.260437,0.314908 -0.507517,0.636808 -0.781307,0.94472 -0.0334,-0.440873 -0.04675,-0.888736 -0.07346,-1.329609 -0.614361,0.104972 -1.155264,0.440873 -1.629392,0.853749 0.03339,-0.433874 0.07345,-0.867744 0.120202,-1.301613 -0.801339,-0.56683 -1.502513,-1.350601 -1.869794,-2.30232 0.30718,-0.846747 0.908187,-1.525547 1.4157,-2.253326 z m -1.649426,2.778172 c 0.287148,0.342899 0.621039,0.678799 0.801339,1.105672 -0.380635,0.993708 -0.974961,1.945421 -0.961607,3.058095 0.04007,1.994402 0.247081,4.037798 1.061775,5.871254 0.193658,0.657802 0.594327,1.189646 0.981642,1.735484 -0.387315,0.08398 -0.774627,0.160951 -1.161942,0.188946 -0.360604,-1.05669 -0.621039,-2.141364 -0.834728,-3.240037 -0.347249,-1.441572 -0.514195,-2.925134 -0.447416,-4.415688 0.07345,-1.448569 0.146911,-2.918138 0.560937,-4.303726 z"
       style="fill:#ffffff;stroke:#000000;stroke-width:0.00640875"
       inkscape:connector-curvature="0" /></g></svg>