<?xml version="1.0" encoding="UTF-8" standalone="no"?>
<svg
   xmlns:dc="http://purl.org/dc/elements/1.1/"
   xmlns:cc="http://creativecommons.org/ns#"
   xmlns:rdf="http://www.w3.org/1999/02/22-rdf-syntax-ns#"
   xmlns:svg="http://www.w3.org/2000/svg"
   xmlns="http://www.w3.org/2000/svg"
   xmlns:sodipodi="http://sodipodi.sourceforge.net/DTD/sodipodi-0.dtd"
   xmlns:inkscape="http://www.inkscape.org/namespaces/inkscape"
   height="100px"
   width="100px"
   fill="#000000"
   xml:space="preserve"
   version="1.1"
   style="shape-rendering:geometricPrecision;text-rendering:geometricPrecision;image-rendering:optimizeQuality;"
   viewBox="0 0 333 333"
   x="0px"
   y="0px"
   fill-rule="evenodd"
   clip-rule="evenodd"
   id="svg10"
   sodipodi:docname="plus.svg"
   inkscape:version="0.92.4 (5da689c313, 2019-01-14)"><metadata
     id="metadata14"><rdf:RDF><cc:Work
         rdf:about=""><dc:format>image/svg+xml</dc:format><dc:type
           rdf:resource="http://purl.org/dc/dcmitype/StillImage" /><dc:title></dc:title></cc:Work></rdf:RDF></metadata><sodipodi:namedview
     pagecolor="#ffffff"
     bordercolor="#666666"
     borderopacity="1"
     objecttolerance="10"
     gridtolerance="10"
     guidetolerance="10"
     inkscape:pageopacity="0"
     inkscape:pageshadow="2"
     inkscape:window-width="919"
     inkscape:window-height="480"
     id="namedview12"
     showgrid="false"
     inkscape:zoom="2.36"
     inkscape:cx="2.7542373"
     inkscape:cy="50"
     inkscape:window-x="0"
     inkscape:window-y="27"
     inkscape:window-maximized="0"
     inkscape:current-layer="svg10" /><defs
     id="defs4"><style
       type="text/css"
       id="style2">
   
    .fil0 {fill:#000000;fill-rule:nonzero}
   
  </style></defs><g
     id="g8"
     style="fill:#ffffff"><path
       class="fil0"
       d="m 272,35 c -36,6 -71,17 -101,38 v 187 c 32,-16 65,-28 101,-30 z M 165,290 C 124,270 81,258 36,257 c -2,0 -4,-2 -4,-5 V 65 l -4,-1 v 201 c 48,1 94,14 139,33 44,-19 90,-32 139,-33 V 64 l -5,1 v 187 c 0,3 -2,5 -4,5 -45,1 -88,13 -128,33 -1,1 -3,1 -4,0 z M 32,56 V 44 c 0,-3 2,-5 5,-5 l 15,2 V 30 c 0,-3 3,-5 6,-5 39,6 76,17 109,40 32,-23 70,-34 109,-40 3,0 5,2 5,5 v 11 l 16,-2 c 2,0 4,2 4,5 v 12 l 9,-1 c 2,-1 5,1 5,4 v 210 c 0,3 -2,5 -5,5 -49,1 -96,14 -141,34 -2,0 -3,0 -4,0 -45,-20 -93,-33 -142,-34 -3,0 -5,-2 -5,-5 V 59 c 0,-2 2,-4 5,-4 3,0 6,0 9,1 z M 52,50 41,49 v 199 c 44,1 86,14 126,33 39,-19 81,-32 125,-33 V 49 l -11,1 v 185 c 0,2 -2,4 -4,5 -40,1 -74,14 -108,32 -3,2 -6,0 -9,-2 -32,-18 -67,-29 -104,-30 -2,-1 -4,-3 -4,-5 z m 9,-15 v 195 c 36,2 70,14 101,30 V 73 C 132,52 97,41 61,35 Z"
       id="path6"
       inkscape:connector-curvature="0"
       style="fill:#ffffff;fill-rule:nonzero" /></g></svg>