<?xml version="1.0" encoding="UTF-8" standalone="no"?>
<svg
   xmlns:dc="http://purl.org/dc/elements/1.1/"
   xmlns:cc="http://creativecommons.org/ns#"
   xmlns:rdf="http://www.w3.org/1999/02/22-rdf-syntax-ns#"
   xmlns:svg="http://www.w3.org/2000/svg"
   xmlns="http://www.w3.org/2000/svg"
   xmlns:sodipodi="http://sodipodi.sourceforge.net/DTD/sodipodi-0.dtd"
   xmlns:inkscape="http://www.inkscape.org/namespaces/inkscape"
   height="100px"
   width="100px"
   version="1.1"
   x="0px"
   y="0px"
   viewBox="0 0 100 100"
   enable-background="new 0 0 100 100"
   xml:space="preserve"
   id="svg22"
   sodipodi:docname="propositions.svg"
   fill="#000000"
   inkscape:version="0.92.4 (5da689c313, 2019-01-14)"><metadata
     id="metadata28"><rdf:RDF><cc:Work
         rdf:about=""><dc:format>image/svg+xml</dc:format><dc:type
           rdf:resource="http://purl.org/dc/dcmitype/StillImage" /><dc:title></dc:title></cc:Work></rdf:RDF></metadata><defs
     id="defs26" /><sodipodi:namedview
     pagecolor="#ffffff"
     bordercolor="#666666"
     borderopacity="1"
     objecttolerance="10"
     gridtolerance="10"
     guidetolerance="10"
     inkscape:pageopacity="0"
     inkscape:pageshadow="2"
     inkscape:window-width="1600"
     inkscape:window-height="836"
     id="namedview24"
     showgrid="false"
     inkscape:zoom="2.36"
     inkscape:cx="2.7542373"
     inkscape:cy="50"
     inkscape:window-x="0"
     inkscape:window-y="27"
     inkscape:window-maximized="1"
     inkscape:current-layer="svg22" /><g
     id="g907"
     style="fill:#ffffff"><g
       id="g4"
       style="fill:#ffffff"><path
         inkscape:connector-curvature="0"
         id="path2"
         d="M 85.667,5 H 30.555 C 30.502,5 30.449,5 30.407,5.01 29.941,4.968 29.454,5.126 29.105,5.497 l -5.082,5.368 -0.032,0.032 -5.368,5.379 -5.411,5.4 c -0.297,0.296 -0.466,0.699 -0.466,1.122 v 70.613 c 0,0.402 0.159,0.805 0.466,1.122 0.317,0.308 0.719,0.467 1.121,0.467 h 55.122 c 0.423,0 0.826,-0.17 1.122,-0.466 l 5.41,-5.4 5.4,-5.411 5.4,-5.4 c 0.307,-0.307 0.466,-0.72 0.466,-1.122 V 6.588 C 87.255,5.709 86.545,5 85.667,5 Z M 32.143,8.176 H 84.078 V 75.612 H 32.143 Z m -0.932,70.613 h 50.622 l -2.224,2.224 H 28.988 Z m -4.479,-66.166 2.234,-2.361 v 66.272 l -2.234,2.234 z m -0.921,71.566 h 50.622 l -2.234,2.234 H 23.577 Z m -4.479,-66.134 2.223,-2.223 v 66.113 l -2.223,2.224 z m -3.176,69.29 -2.234,2.234 V 23.455 l 2.234,-2.234 z m 50.643,4.479 H 18.167 L 20.39,89.6 h 50.633 z"
         style="fill:#ffffff" /></g><g
       id="g8"
       style="fill:#ffffff"><path
         inkscape:connector-curvature="0"
         id="path6"
         d="m 58.11,44.974 c -7.144,0 -12.957,-5.813 -12.957,-12.958 0,-7.145 5.813,-12.957 12.957,-12.957 7.144,0 12.957,5.812 12.957,12.957 0,7.145 -5.813,12.958 -12.957,12.958 z m 0,-22.739 c -5.393,0 -9.781,4.387 -9.781,9.781 0,5.394 4.388,9.782 9.781,9.782 5.393,0 9.781,-4.388 9.781,-9.782 0,-5.394 -4.388,-9.781 -9.781,-9.781 z"
         style="fill:#ffffff" /></g><g
       id="g12"
       style="fill:#ffffff"><path
         inkscape:connector-curvature="0"
         id="path10"
         d="m 56.646,36.532 v 0 c -0.421,0 -0.825,-0.168 -1.123,-0.465 l -2.928,-2.928 c -0.62,-0.62 -0.62,-1.625 0,-2.246 0.62,-0.62 1.626,-0.62 2.246,0 l 1.805,1.805 4.733,-4.733 c 0.62,-0.62 1.625,-0.62 2.246,0 0.62,0.62 0.62,1.625 0,2.246 l -5.856,5.856 c -0.298,0.298 -0.702,0.465 -1.123,0.465 z"
         style="fill:#ffffff" /></g><g
       id="g16"
       style="fill:#ffffff"><path
         inkscape:connector-curvature="0"
         id="path14"
         d="M 73.309,56.828 H 42.911 c -0.877,0 -1.588,-0.711 -1.588,-1.588 0,-0.877 0.711,-1.588 1.588,-1.588 h 30.397 c 0.877,0 1.588,0.711 1.588,1.588 0,0.877 -0.71,1.588 -1.587,1.588 z"
         style="fill:#ffffff" /></g><g
       id="g20"
       style="fill:#ffffff"><path
         inkscape:connector-curvature="0"
         id="path18"
         d="M 67.989,64.24 H 48.231 c -0.877,0 -1.588,-0.711 -1.588,-1.588 0,-0.877 0.711,-1.588 1.588,-1.588 h 19.758 c 0.877,0 1.588,0.711 1.588,1.588 0,0.876 -0.711,1.588 -1.588,1.588 z"
         style="fill:#ffffff" /></g></g></svg>