<?xml version="1.0" encoding="UTF-8" standalone="no"?>
<!-- Created with Inkscape (http://www.inkscape.org/) -->

<svg
   xmlns:dc="http://purl.org/dc/elements/1.1/"
   xmlns:cc="http://creativecommons.org/ns#"
   xmlns:rdf="http://www.w3.org/1999/02/22-rdf-syntax-ns#"
   xmlns:svg="http://www.w3.org/2000/svg"
   xmlns="http://www.w3.org/2000/svg"
   xmlns:sodipodi="http://sodipodi.sourceforge.net/DTD/sodipodi-0.dtd"
   xmlns:inkscape="http://www.inkscape.org/namespaces/inkscape"
   width="35.50742mm"
   height="31.974636mm"
   viewBox="0 0 35.50742 31.974636"
   version="1.1"
   id="svg1535"
   inkscape:version="0.92.4 (5da689c313, 2019-01-14)"
   sodipodi:docname="plante_main.svg">
  <defs
     id="defs1529" />
  <sodipodi:namedview
     id="base"
     pagecolor="#ffffff"
     bordercolor="#666666"
     borderopacity="1.0"
     inkscape:pageopacity="0.0"
     inkscape:pageshadow="2"
     inkscape:zoom="1.4"
     inkscape:cx="-229.88524"
     inkscape:cy="74.762228"
     inkscape:document-units="mm"
     inkscape:current-layer="layer1"
     showgrid="false"
     fit-margin-top="5"
     fit-margin-left="5"
     fit-margin-right="5"
     fit-margin-bottom="5"
     inkscape:window-width="1600"
     inkscape:window-height="836"
     inkscape:window-x="0"
     inkscape:window-y="27"
     inkscape:window-maximized="1" />
  <metadata
     id="metadata1532">
    <rdf:RDF>
      <cc:Work
         rdf:about="">
        <dc:format>image/svg+xml</dc:format>
        <dc:type
           rdf:resource="http://purl.org/dc/dcmitype/StillImage" />
        <dc:title />
      </cc:Work>
    </rdf:RDF>
  </metadata>
  <g
     inkscape:label="Calque 1"
     inkscape:groupmode="layer"
     id="layer1"
     transform="translate(-68.424861,-233.38768)">
    <g
       transform="matrix(0.07801004,0,0,0.0914885,73.424861,238.40508)"
       style="fill:#c8e6c9;fill-opacity:1;image-rendering:optimizeQuality;shape-rendering:geometricPrecision;text-rendering:geometricPrecision"
       id="g16-2-7">
      <path
         class="fil0"
         d="m 107,73 c 39,18 40,83 79,51 -8,-15 -23,-30 -44,-45 23,9 40,21 52,37 12,-34 -28,-68 -87,-43 z"
         id="path6-8-5"
         inkscape:connector-curvature="0"
         style="fill:#c8e6c9;fill-opacity:1" />
      <path
         class="fil0"
         d="M 314,0 C 267,46 304,143 221,108 230,81 243,61 259,46 239,55 222,71 209,96 185,56 224,-4 314,0 Z"
         id="path8-5-2"
         inkscape:connector-curvature="0"
         style="fill:#c8e6c9;fill-opacity:1" />
      <path
         class="fil0"
         d="m 198,157 c 2,-1 5,-1 8,-1 5,-33 14,-67 34,-94 -18,15 -30,38 -39,61 l -2,6 -4,-6 c -6,-10 -15,-19 -25,-25 17,16 30,36 28,59 z"
         id="path10-9-2"
         inkscape:connector-curvature="0"
         style="fill:#c8e6c9;fill-opacity:1" />
      <path
         class="fil0"
         d="m 200,173 h -38 c 0,-15 17,-27 38,-27 21,0 38,12 38,27 z"
         id="path12-8"
         inkscape:connector-curvature="0"
         style="fill:#c8e6c9;fill-opacity:1" />
      <path
         class="fil0"
         d="m 10,161 h 29 c 6,0 10,4 10,10 30,-7 53,-9 69,-6 23,6 53,12 88,17 22,3 25,22 -4,25 -16,3 -35,3 -57,0 32,8 56,7 70,3 17,-5 20,-19 5,-28 35,-13 61,-22 77,-27 18,-7 47,4 17,21 -73,39 -109,58 -109,58 -14,6 -33,6 -56,0 C 101,222 67,218 49,222 v 8 c 0,6 -4,10 -10,10 H 10 C 5,240 0,236 0,230 v -59 c 0,-6 5,-10 10,-10 z m 0,10 h 29 c 0,0 0,0 0,0 v 59 c 0,0 0,0 0,0 H 10 c 0,0 0,0 0,0 v -59 c 0,0 0,0 0,0 z"
         id="path14-6"
         inkscape:connector-curvature="0"
         style="fill:#c8e6c9;fill-opacity:1" />
    </g>
  </g>
</svg>
