<?xml version="1.0" encoding="UTF-8" standalone="no"?>
<svg
   xmlns:dc="http://purl.org/dc/elements/1.1/"
   xmlns:cc="http://creativecommons.org/ns#"
   xmlns:rdf="http://www.w3.org/1999/02/22-rdf-syntax-ns#"
   xmlns:svg="http://www.w3.org/2000/svg"
   xmlns="http://www.w3.org/2000/svg"
   xmlns:sodipodi="http://sodipodi.sourceforge.net/DTD/sodipodi-0.dtd"
   xmlns:inkscape="http://www.inkscape.org/namespaces/inkscape"
   height="100px"
   width="100px"
   fill="#000000"
   viewBox="0 0 214 256"
   x="0px"
   y="0px"
   version="1.1"
   id="svg4"
   sodipodi:docname="signature.svg"
   inkscape:version="0.92.4 (5da689c313, 2019-01-14)">
  <metadata
     id="metadata10">
    <rdf:RDF>
      <cc:Work
         rdf:about="">
        <dc:format>image/svg+xml</dc:format>
        <dc:type
           rdf:resource="http://purl.org/dc/dcmitype/StillImage" />
        <dc:title></dc:title>
      </cc:Work>
    </rdf:RDF>
  </metadata>
  <defs
     id="defs8" />
  <sodipodi:namedview
     pagecolor="#ffffff"
     bordercolor="#666666"
     borderopacity="1"
     objecttolerance="10"
     gridtolerance="10"
     guidetolerance="10"
     inkscape:pageopacity="0"
     inkscape:pageshadow="2"
     inkscape:window-width="1600"
     inkscape:window-height="836"
     id="namedview6"
     showgrid="false"
     inkscape:zoom="6.56"
     inkscape:cx="50"
     inkscape:cy="50"
     inkscape:window-x="0"
     inkscape:window-y="27"
     inkscape:window-maximized="1"
     inkscape:current-layer="svg4" />
  <path
     d="M0,4.99891 C0,2.23809 2.240727,0 5.000721,0 L208.999279,0 C211.761101,0 214,2.23256 214,4.99891 L214,251.00109 C214,253.76191 211.759273,256 208.999279,256 L5.000721,256 C2.238899,256 0,253.76744 0,251.00109 L0,4.99891 Z M37,48.00293 L37,52.99707 C37,53.56212 37.450948,54 38.007221,54 L175.992779,54 C176.547221,54 177,53.55097 177,52.99707 L177,48.00293 C177,47.43788 176.549052,47 175.992779,47 L38.007221,47 C37.452779,47 37,47.44903 37,48.00293 Z M37,68.00293 L37,72.99707 C37,73.56212 37.450948,74 38.007221,74 L175.992779,74 C176.547221,74 177,73.55097 177,72.99707 L177,68.00293 C177,67.43788 176.549052,67 175.992779,67 L38.007221,67 C37.452779,67 37,67.44903 37,68.00293 Z M37,88.00293 L37,92.99707 C37,93.56212 37.450948,94 38.007221,94 L175.992779,94 C176.547221,94 177,93.55097 177,92.99707 L177,88.00293 C177,87.43788 176.549052,87 175.992779,87 L38.007221,87 C37.452779,87 37,87.44903 37,88.00293 Z M37,108.00293 L37,112.99707 C37,113.56212 37.450948,114 38.007221,114 L175.992779,114 C176.547221,114 177,113.55097 177,112.99707 L177,108.00293 C177,107.43788 176.549052,107 175.992779,107 L38.007221,107 C37.452779,107 37,107.44903 37,108.00293 Z M37,128.00293 L37,132.99707 C37,133.56212 37.450948,134 38.007221,134 L175.992779,134 C176.547221,134 177,133.55097 177,132.99707 L177,128.00293 C177,127.43788 176.549052,127 175.992779,127 L38.007221,127 C37.452779,127 37,127.44903 37,128.00293 Z M37,148.00293 L37,152.99707 C37,153.56212 37.450948,154 38.007221,154 L175.992779,154 C176.547221,154 177,153.55097 177,152.99707 L177,148.00293 C177,147.43788 176.549052,147 175.992779,147 L38.007221,147 C37.452779,147 37,147.44903 37,148.00293 Z M37,168.00293 L37,172.99707 C37,173.56212 37.446316,174 37.996875,174 L74.003125,174 C74.54677,174 75,173.55097 75,172.99707 L75,168.00293 C75,167.43788 74.553684,167 74.003125,167 L37.996875,167 C37.45323,167 37,167.44903 37,168.00293 Z M128.792786,198.64001 C128.792786,198.64001 126.649109,194.82764 122.162964,194.65875 C117.676819,194.48987 111.44397,197.47559 106.207153,208.57513 C100.970337,219.67468 102.947388,226.61328 106.737793,228.15472 C110.528198,229.69617 113.400147,228.68549 116.532349,227.07129 C119.66455,225.45709 119.822632,225.1861 119.822632,225.1861 C119.822632,225.1861 120.917175,228.07153 123.870422,226.29279 C126.823669,224.51404 128.760315,217.96771 128.760315,217.96771 L130.196106,216.56116 C130.196106,216.56116 129.361878,223.89355 133.235352,224.46924 C137.108825,225.04492 140.581482,219.56427 140.581482,219.56427 C140.581482,219.56427 140.952882,222.35242 144.015015,222.62286 C147.077148,222.89331 149.637085,219.21973 149.637085,219.21973 C149.637085,219.21973 150.529296,221.36609 153.344604,221.00543 C156.159911,220.64478 159.24762,216.53125 159.24762,216.53125 C159.24762,216.53125 160.508786,219.03125 164.180237,217.86237 C167.851688,216.69348 174.549919,213.19562 179.979121,208.57513 C185.408324,203.95465 187.190967,202.72118 186.482173,202.0917 C185.77338,201.46222 183.987633,202.2309 176.973964,206.61384 C169.960295,210.99677 163.146363,214.16492 162.594116,214.16492 C162.041869,214.16492 162.165771,211.6084 162.165771,211.6084 C162.165771,211.6084 166.955445,204.18628 162.787964,203.13025 C158.620483,202.07422 158.265991,210.55127 158.265991,210.55127 C158.265991,210.55127 156.967164,212.8316 155.732666,214.47827 C154.498168,216.12494 152.933227,216.95386 152.933227,216.95386 C152.933227,216.95386 152.933228,216.29785 152.933228,215.53113 C152.933227,214.7644 153.170898,213.86084 153.170898,213.86084 C153.170898,213.86084 159.002686,203.8822 155.026001,203.14734 C151.049316,202.41248 149.337769,212.49048 149.337769,212.49048 C149.337769,212.49048 147.921874,214.86511 147.050659,216.12476 C146.179443,217.3844 144.541077,218.47675 144.541077,218.47675 C144.541077,218.47675 144.278565,217.47675 144.371216,215.93152 C144.463867,214.38629 144.950378,212.5556 144.950378,212.5556 C144.950378,212.5556 150.279359,204.56116 146.478882,203.41437 C142.678405,202.26758 141.198669,211.14063 141.198669,211.14063 C141.198669,211.14063 139.084777,214.7898 137.579467,216.86029 C136.074157,218.93079 134.3703,220.34344 134.3703,220.34344 C134.3703,220.34344 134.035401,217.97021 134.26709,215.91553 C134.498779,213.86084 135.28595,211.14093 135.28595,211.14093 C135.28595,211.14093 142.781005,203.37164 138.524047,201.75208 C134.267089,200.13251 131.714539,209.06995 131.714539,209.06995 L130.436584,210.57446 C130.436584,210.57446 130.701905,208.68335 130.701904,207.31946 C130.701904,205.95557 130.569885,204.42603 130.569885,204.42603 L133.912476,197.26373 C133.912476,197.26373 135.304932,193.9295 133.531555,193.21832 C131.758177,192.50714 130.037903,196.08221 130.037903,196.08221 L128.792786,198.64001 Z M120.165394,220.06058 C120.165394,220.06058 112.562108,225.30325 109.754179,224.86428 C106.94625,224.4253 106.086243,222.03825 108.804614,212.68583 C111.522985,203.33341 119.640167,197.63964 122.898875,198.77477 C126.157584,199.90991 126.444673,203.81535 126.444673,203.81535 C126.444673,203.81535 123.608255,210.14956 122.511998,213.20964 C121.415741,216.26972 120.165394,220.06058 120.165394,220.06058 Z"
     id="path2"
     style="fill:#1b5e20;fill-opacity:1" />
</svg>
